<svg xmlns="http://www.w3.org/2000/svg" xmlns:xlink="http://www.w3.org/1999/xlink" width="100" zoomAndPan="magnify" viewBox="0 0 75 74.999997" height="100" preserveAspectRatio="xMidYMid meet" version="1.0"><defs><clipPath id="id1"><path d="M 0.882812 0 L 74.382812 0 L 74.382812 75 L 0.882812 75 Z M 0.882812 0 " clip-rule="nonzero"/></clipPath></defs><g clip-path="url(#id1)"><path stroke-linecap="butt" transform="matrix(1.665, 0, 0, 1.665, 40.974053, 51.056596)" fill="none" stroke-linejoin="miter" d="M 9.801151 -12.299383 C 13.599481 -6.000115 18.200176 -2.999458 18.899313 0.599454 C 19.499913 4.299248 16.10042 8.501106 12.299744 10.800281 C 8.499068 13.000919 4.299555 13.200337 0.79918 12.400318 C -2.69885 11.6003 -5.399207 9.800844 -9.800483 7.600205 C -14.300296 5.399567 -20.599565 2.69921 -22.300484 -1.598838 C -23.900522 -6.000115 -20.899865 -11.900547 -16.400052 -18.199815 C -11.900239 -24.499084 -5.999807 -31.199535 -1.499995 -29.700379 C 2.999818 -28.29976 6.000475 -18.600998 9.801151 -12.299383 Z M 9.801151 -12.299383 " stroke="#91a4ae" stroke-width="1" stroke-opacity="1" stroke-miterlimit="4"/></g></svg>