<svg xmlns="http://www.w3.org/2000/svg" xmlns:xlink="http://www.w3.org/1999/xlink" width="100" zoomAndPan="magnify" viewBox="0 0 75 74.999997" height="100" preserveAspectRatio="xMidYMid meet" version="1.0"><defs><clipPath id="id1"><path d="M 0 5.355469 L 75 5.355469 L 75 69.855469 L 0 69.855469 Z M 0 5.355469 " clip-rule="nonzero"/></clipPath></defs><g clip-path="url(#id1)"><path stroke-linecap="butt" transform="matrix(1.1175, 0, 0, 1.1175, 43.970235, 36.232137)" fill="none" stroke-linejoin="miter" d="M 22.300127 -22.600069 C 26.498254 -18.101327 25.900519 -8.998977 25.201414 -0.700598 C 24.498813 7.699151 23.799708 15.399795 19.601581 20.499767 C 15.399959 25.599739 7.699315 28.001166 0.201412 27.700551 C -7.299987 27.501306 -14.598645 24.701389 -22.498534 19.601417 C -30.300548 14.599319 -38.801667 7.300661 -37.899822 0.798982 C -37.099346 -5.601326 -27.000772 -11.299033 -19.100883 -15.801271 C -11.298869 -20.300013 -5.601161 -23.701159 1.700993 -25.399985 C 8.999651 -27.098811 18.098505 -27.098811 22.300127 -22.600069 Z M 22.300127 -22.600069 " stroke="#6a6a6a" stroke-width="1" stroke-opacity="1" stroke-miterlimit="4"/></g></svg>